<?xml version="1.0" encoding="UTF-8"?>
<!DOCTYPE score-partwise PUBLIC "-//Recordare//DTD MusicXML 2.0 Partwise//EN" "http://www.musicxml.org/dtds/partwise.dtd">

<score-partwise version="2.0">
    <movement-title>AccSeekYeFirst</movement-title>
    <identification>
        <encoding>
            <software>Logic Pro</software>
            <encoding-date>2026-03-12</encoding-date>
            <supports attribute="new-system" element="print" type="yes" value="yes"/>
            <supports attribute="new-page" element="print" type="yes" value="yes"/>
        </encoding>
    </identification>
    <defaults>
        <scaling>
            <millimeters>7.540625</millimeters>
            <tenths>40</tenths>
        </scaling>
        <page-layout>
            <page-height>423</page-height>
            <page-width>1856</page-width>
            <page-margins type="both">
                <left-margin>58</left-margin>
                <right-margin>58</right-margin>
                <top-margin>66</top-margin>
                <bottom-margin>66</bottom-margin>
            </page-margins>
        </page-layout>
        <system-layout>
            <system-margins>
                <left-margin>26</left-margin>
                <right-margin>0</right-margin>
            </system-margins>
            <system-distance>37</system-distance>
            <top-system-distance>37</top-system-distance>
        </system-layout>
        <staff-layout>
            <staff-distance>74</staff-distance>
        </staff-layout>
    </defaults>
    <part-list>
        <part-group number="2" type="start">
            <group-symbol>bracket</group-symbol>
            <group-barline>no</group-barline>
        </part-group>
        <part-group number="3" type="start">
            <group-symbol>none</group-symbol>
            <group-barline>yes</group-barline>
        </part-group>
        <score-part id="P1">
            <part-name>Main</part-name>
            <score-instrument id="P1-I1">
                <instrument-name>Choir Aahs</instrument-name>
            </score-instrument>
            <midi-instrument id="P1-I1">
                <midi-channel>1</midi-channel>
                <midi-program>53</midi-program>
            </midi-instrument>
        </score-part>
        <score-part id="P2">
            <part-name>Seconds</part-name>
            <score-instrument id="P2-I1">
                <instrument-name>Choir Aahs</instrument-name>
            </score-instrument>
            <midi-instrument id="P2-I1">
                <midi-channel>1</midi-channel>
                <midi-program>53</midi-program>
            </midi-instrument>
        </score-part>
        <score-part id="P3">
            <part-name>Thirds</part-name>
            <score-instrument id="P3-I1">
                <instrument-name>Choir Aahs</instrument-name>
            </score-instrument>
            <midi-instrument id="P3-I1">
                <midi-channel>1</midi-channel>
                <midi-program>53</midi-program>
            </midi-instrument>
        </score-part>
        <part-group number="2" type="stop"/>
        <part-group number="3" type="stop"/>
    </part-list>
    <part id="P1">
        <measure number="1" width="466">
            <print page-number="1">
                <system-layout>
                    <system-margins>
                        <left-margin>26</left-margin>
                        <right-margin>0</right-margin>
                    </system-margins>
                    <top-system-distance>37</top-system-distance>
                </system-layout>
                <measure-numbering>none</measure-numbering>
            </print>
            <attributes>
                <divisions>2</divisions>
                <key>
                    <fifths>3</fifths>
                    <mode>major</mode>
                </key>
                <time>
                    <beats>4</beats>
                    <beat-type>4</beat-type>
                </time>
                <clef>
                    <sign>G</sign>
                    <line>2</line>
                </clef>
            </attributes>
            <sound tempo="83"/>
            <note>
                <pitch>
                    <step>C</step>
                    <alter>1</alter>
                    <octave>4</octave>
                </pitch>
                <duration>2</duration>
                <voice>1</voice>
                <type>quarter</type>
                <stem>up</stem>
                <staff>1</staff>
                <lyric>
                    <text>Aa-</text>
                </lyric>
            </note>
            <note>
                <pitch>
                    <step>C</step>
                    <alter>1</alter>
                    <octave>4</octave>
                </pitch>
                <duration>1</duration>
                <voice>1</voice>
                <type>eighth</type>
                <stem>up</stem>
                <staff>1</staff>
                <beam number="1">begin</beam>
                <lyric>
                    <text>le-</text>
                </lyric>
            </note>
            <note>
                <pitch>
                    <step>D</step>
                    <octave>4</octave>
                </pitch>
                <duration>1</duration>
                <voice>1</voice>
                <type>eighth</type>
                <stem>up</stem>
                <staff>1</staff>
                <beam number="1">end</beam>
                <lyric>
                    <text>lu-</text>
                </lyric>
            </note>
            <note>
                <pitch>
                    <step>E</step>
                    <octave>4</octave>
                </pitch>
                <duration>2</duration>
                <voice>1</voice>
                <type>quarter</type>
                <stem>up</stem>
                <staff>1</staff>
                <lyric>
                    <text>ia</text>
                </lyric>
            </note>
            <note>
                <pitch>
                    <step>C</step>
                    <alter>1</alter>
                    <octave>4</octave>
                </pitch>
                <duration>1</duration>
                <voice>1</voice>
                <type>eighth</type>
                <stem>up</stem>
                <staff>1</staff>
                <beam number="1">begin</beam>
                <lyric>
                    <text>Aa-</text>
                </lyric>
            </note>
            <note>
                <pitch>
                    <step>B</step>
                    <octave>3</octave>
                </pitch>
                <duration>1</duration>
                <voice>1</voice>
                <type>eighth</type>
                <stem>up</stem>
                <staff>1</staff>
                <beam number="1">end</beam>
                <lyric>
                    <text>le-</text>
                </lyric>
            </note>
        </measure>
        <measure number="2" width="272">
            <print new-system="no"/>
            <note>
                <pitch>
                    <step>A</step>
                    <octave>3</octave>
                </pitch>
                <duration>1</duration>
                <voice>1</voice>
                <type>eighth</type>
                <stem>up</stem>
                <staff>1</staff>
                <beam number="1">begin</beam>
                <lyric>
                    <text>lu-</text>
                </lyric>
            </note>
            <note>
                <pitch>
                    <step>F</step>
                    <alter>1</alter>
                    <octave>3</octave>
                </pitch>
                <duration>1</duration>
                <voice>1</voice>
                <type>eighth</type>
                <stem>up</stem>
                <staff>1</staff>
                <beam number="1">continue</beam>
                <lyric>
                    <text>aa-</text>
                </lyric>
            </note>
            <note>
                <pitch>
                    <step>A</step>
                    <octave>3</octave>
                </pitch>
                <duration>1</duration>
                <voice>1</voice>
                <type>eighth</type>
                <stem>up</stem>
                <staff>1</staff>
                <beam number="1">continue</beam>
                <lyric>
                    <text>le-</text>
                </lyric>
            </note>
            <note>
                <pitch>
                    <step>B</step>
                    <octave>3</octave>
                </pitch>
                <duration>1</duration>
                <voice>1</voice>
                <type>eighth</type>
                <stem>up</stem>
                <staff>1</staff>
                <beam number="1">end</beam>
                <lyric>
                    <text>lu-</text>
                </lyric>
            </note>
            <note>
                <pitch>
                    <step>C</step>
                    <alter>1</alter>
                    <octave>4</octave>
                </pitch>
                <duration>4</duration>
                <voice>1</voice>
                <type>half</type>
                <stem>up</stem>
                <staff>1</staff>
                <lyric>
                    <text>ia</text>
                </lyric>
            </note>
        </measure>
        <measure number="3" width="345">
            <print new-system="no"/>
            <note>
                <pitch>
                    <step>D</step>
                    <octave>4</octave>
                </pitch>
                <duration>2</duration>
                <voice>1</voice>
                <type>quarter</type>
                <stem>up</stem>
                <staff>1</staff>
                <lyric>
                    <text>aa-</text>
                </lyric>
            </note>
            <note>
                <pitch>
                    <step>E</step>
                    <octave>4</octave>
                </pitch>
                <duration>1</duration>
                <voice>1</voice>
                <type>eighth</type>
                <stem>up</stem>
                <staff>1</staff>
                <beam number="1">begin</beam>
                <lyric>
                    <text>le-</text>
                </lyric>
            </note>
            <note>
                <pitch>
                    <step>D</step>
                    <octave>4</octave>
                </pitch>
                <duration>1</duration>
                <voice>1</voice>
                <type>eighth</type>
                <stem>up</stem>
                <staff>1</staff>
                <beam number="1">end</beam>
                <lyric>
                    <text>ee-</text>
                </lyric>
            </note>
            <note>
                <pitch>
                    <step>C</step>
                    <alter>1</alter>
                    <octave>4</octave>
                </pitch>
                <duration>2</duration>
                <voice>1</voice>
                <type>quarter</type>
                <stem>up</stem>
                <staff>1</staff>
                <lyric>
                    <text>lu</text>
                </lyric>
            </note>
            <note>
                <pitch>
                    <step>D</step>
                    <octave>4</octave>
                </pitch>
                <duration>1</duration>
                <voice>1</voice>
                <type>eighth</type>
                <stem>up</stem>
                <staff>1</staff>
                <beam number="1">begin</beam>
                <lyric>
                    <text>aa-</text>
                </lyric>
            </note>
            <note>
                <pitch>
                    <step>C</step>
                    <alter>1</alter>
                    <octave>4</octave>
                </pitch>
                <duration>1</duration>
                <voice>1</voice>
                <type>eighth</type>
                <stem>up</stem>
                <staff>1</staff>
                <beam number="1">end</beam>
                <lyric>
                    <text>le-</text>
                </lyric>
            </note>
        </measure>
        <measure number="4" width="268">
            <print new-system="no"/>
            <attributes>
                <divisions>1</divisions>
            </attributes>
            <note>
                <pitch>
                    <step>B</step>
                    <octave>3</octave>
                </pitch>
                <duration>2</duration>
                <voice>1</voice>
                <type>half</type>
                <stem>up</stem>
                <staff>1</staff>
                <lyric>
                    <text>luuu</text>
                </lyric>
            </note>
            <note>
                <pitch>
                    <step>B</step>
                    <octave>3</octave>
                </pitch>
                <duration>2</duration>
                <voice>1</voice>
                <type>half</type>
                <stem>up</stem>
                <staff>1</staff>
                <lyric>
                    <text>ia</text>
                </lyric>
            </note>
        </measure>
        <measure number="5" width="327">
            <print new-system="no"/>
            <attributes>
                <divisions>2</divisions>
            </attributes>
            <note>
                <pitch>
                    <step>C</step>
                    <alter>1</alter>
                    <octave>4</octave>
                </pitch>
                <duration>2</duration>
                <voice>1</voice>
                <type>quarter</type>
                <stem>up</stem>
                <staff>1</staff>
                <lyric>
                    <text>Aa-</text>
                </lyric>
            </note>
            <note>
                <pitch>
                    <step>C</step>
                    <alter>1</alter>
                    <octave>4</octave>
                </pitch>
                <duration>1</duration>
                <voice>1</voice>
                <type>eighth</type>
                <stem>up</stem>
                <staff>1</staff>
                <beam number="1">begin</beam>
                <lyric>
                    <text>le-</text>
                </lyric>
            </note>
            <note>
                <pitch>
                    <step>D</step>
                    <octave>4</octave>
                </pitch>
                <duration>1</duration>
                <voice>1</voice>
                <type>eighth</type>
                <stem>up</stem>
                <staff>1</staff>
                <beam number="1">end</beam>
                <lyric>
                    <text>lu-</text>
                </lyric>
            </note>
            <note>
                <pitch>
                    <step>E</step>
                    <octave>4</octave>
                </pitch>
                <duration>2</duration>
                <voice>1</voice>
                <type>quarter</type>
                <stem>up</stem>
                <staff>1</staff>
                <lyric>
                    <text>ia</text>
                </lyric>
            </note>
            <note>
                <pitch>
                    <step>C</step>
                    <alter>1</alter>
                    <octave>4</octave>
                </pitch>
                <duration>1</duration>
                <voice>1</voice>
                <type>eighth</type>
                <stem>up</stem>
                <staff>1</staff>
                <beam number="1">begin</beam>
                <lyric>
                    <text>aa</text>
                </lyric>
            </note>
            <note>
                <pitch>
                    <step>B</step>
                    <octave>3</octave>
                </pitch>
                <duration>1</duration>
                <voice>1</voice>
                <type>eighth</type>
                <stem>up</stem>
                <staff>1</staff>
                <beam number="1">end</beam>
                <lyric>
                    <text>le</text>
                </lyric>
            </note>
        </measure>
        <measure number="6" width="631">
            <print new-page="yes" page-number="2">
                <system-layout>
                    <system-margins>
                        <left-margin>26</left-margin>
                        <right-margin>0</right-margin>
                    </system-margins>
                    <top-system-distance>37</top-system-distance>
                </system-layout>
            </print>
            <note>
                <pitch>
                    <step>A</step>
                    <octave>3</octave>
                </pitch>
                <duration>1</duration>
                <voice>1</voice>
                <type>eighth</type>
                <stem>up</stem>
                <staff>1</staff>
                <beam number="1">begin</beam>
                <lyric>
                    <text>lu-</text>
                </lyric>
            </note>
            <note>
                <pitch>
                    <step>F</step>
                    <alter>1</alter>
                    <octave>3</octave>
                </pitch>
                <duration>1</duration>
                <voice>1</voice>
                <type>eighth</type>
                <stem>up</stem>
                <staff>1</staff>
                <beam number="1">continue</beam>
                <lyric>
                    <text>aa-</text>
                </lyric>
            </note>
            <note>
                <pitch>
                    <step>A</step>
                    <octave>3</octave>
                </pitch>
                <duration>1</duration>
                <voice>1</voice>
                <type>eighth</type>
                <stem>up</stem>
                <staff>1</staff>
                <beam number="1">continue</beam>
                <lyric>
                    <text>le-</text>
                </lyric>
            </note>
            <note>
                <pitch>
                    <step>B</step>
                    <octave>3</octave>
                </pitch>
                <duration>1</duration>
                <voice>1</voice>
                <type>eighth</type>
                <stem>up</stem>
                <staff>1</staff>
                <beam number="1">end</beam>
                <lyric>
                    <text>lu-</text>
                </lyric>
            </note>
            <note>
                <pitch>
                    <step>C</step>
                    <alter>1</alter>
                    <octave>4</octave>
                </pitch>
                <duration>4</duration>
                <voice>1</voice>
                <type>half</type>
                <stem>up</stem>
                <staff>1</staff>
                <lyric>
                    <text>ia</text>
                </lyric>
            </note>
        </measure>
        <measure number="7" width="578">
            <print new-system="no"/>
            <note>
                <pitch>
                    <step>D</step>
                    <octave>4</octave>
                </pitch>
                <duration>2</duration>
                <voice>1</voice>
                <type>quarter</type>
                <stem>up</stem>
                <staff>1</staff>
                <lyric>
                    <text>aa-</text>
                </lyric>
            </note>
            <note>
                <pitch>
                    <step>E</step>
                    <octave>4</octave>
                </pitch>
                <duration>1</duration>
                <voice>1</voice>
                <type>eighth</type>
                <stem>up</stem>
                <staff>1</staff>
                <beam number="1">begin</beam>
                <lyric>
                    <text>le-</text>
                </lyric>
            </note>
            <note>
                <pitch>
                    <step>D</step>
                    <octave>4</octave>
                </pitch>
                <duration>1</duration>
                <voice>1</voice>
                <type>eighth</type>
                <stem>up</stem>
                <staff>1</staff>
                <beam number="1">end</beam>
                <lyric>
                    <text>ee-</text>
                </lyric>
            </note>
            <note>
                <pitch>
                    <step>C</step>
                    <alter>1</alter>
                    <octave>4</octave>
                </pitch>
                <duration>2</duration>
                <voice>1</voice>
                <type>quarter</type>
                <stem>up</stem>
                <staff>1</staff>
                <lyric>
                    <text>lu-</text>
                </lyric>
            </note>
            <note>
                <pitch>
                    <step>D</step>
                    <octave>4</octave>
                </pitch>
                <duration>1</duration>
                <voice>1</voice>
                <type>eighth</type>
                <stem>up</stem>
                <staff>1</staff>
                <beam number="1">begin</beam>
                <lyric>
                    <text>aa-</text>
                </lyric>
            </note>
            <note>
                <pitch>
                    <step>C</step>
                    <alter>1</alter>
                    <octave>4</octave>
                </pitch>
                <duration>1</duration>
                <voice>1</voice>
                <type>eighth</type>
                <stem>up</stem>
                <staff>1</staff>
                <beam number="1">end</beam>
                <lyric>
                    <text>le-</text>
                </lyric>
            </note>
        </measure>
        <measure number="8" width="469">
            <print new-system="no"/>
            <attributes>
                <divisions>1</divisions>
            </attributes>
            <note>
                <pitch>
                    <step>B</step>
                    <octave>3</octave>
                </pitch>
                <duration>2</duration>
                <voice>1</voice>
                <type>half</type>
                <stem>up</stem>
                <staff>1</staff>
                <lyric>
                    <text>lu-</text>
                </lyric>
            </note>
            <note>
                <pitch>
                    <step>A</step>
                    <octave>3</octave>
                </pitch>
                <duration>2</duration>
                <voice>1</voice>
                <type>half</type>
                <stem>up</stem>
                <staff>1</staff>
                <lyric>
                    <text>ia</text>
                </lyric>
            </note>
        </measure>
    </part>
    <part id="P2">
        <measure number="1" width="466">
            <print new-page="yes"/>
            <attributes>
                <divisions>2</divisions>
                <key>
                    <fifths>3</fifths>
                    <mode>major</mode>
                </key>
                <time>
                    <beats>4</beats>
                    <beat-type>4</beat-type>
                </time>
                <clef>
                    <sign>G</sign>
                    <line>2</line>
                </clef>
            </attributes>
            <note>
                <pitch>
                    <step>E</step>
                    <octave>4</octave>
                </pitch>
                <duration>1</duration>
                <voice>1</voice>
                <type>eighth</type>
                <stem>up</stem>
                <staff>1</staff>
                <beam number="1">begin</beam>
                <lyric>
                    <text>Aa-</text>
                </lyric>
            </note>
            <note>
                <pitch>
                    <step>D</step>
                    <octave>4</octave>
                </pitch>
                <duration>1</duration>
                <voice>1</voice>
                <type>eighth</type>
                <stem>up</stem>
                <staff>1</staff>
                <beam number="1">continue</beam>
                <lyric>
                    <text>aa-</text>
                </lyric>
            </note>
            <note>
                <pitch>
                    <step>C</step>
                    <alter>1</alter>
                    <octave>4</octave>
                </pitch>
                <duration>1</duration>
                <voice>1</voice>
                <type>eighth</type>
                <stem>up</stem>
                <staff>1</staff>
                <beam number="1">continue</beam>
                <lyric>
                    <text>le-</text>
                </lyric>
            </note>
            <note>
                <pitch>
                    <step>D</step>
                    <octave>4</octave>
                </pitch>
                <duration>1</duration>
                <voice>1</voice>
                <type>eighth</type>
                <stem>up</stem>
                <staff>1</staff>
                <beam number="1">end</beam>
                <lyric>
                    <text>ee-</text>
                </lyric>
            </note>
            <note>
                <pitch>
                    <step>E</step>
                    <octave>4</octave>
                </pitch>
                <duration>1</duration>
                <voice>1</voice>
                <type>eighth</type>
                <stem>up</stem>
                <staff>1</staff>
                <beam number="1">begin</beam>
                <lyric>
                    <text>lu-</text>
                </lyric>
            </note>
            <note>
                <pitch>
                    <step>A</step>
                    <octave>3</octave>
                </pitch>
                <duration>1</duration>
                <tie type="start"/>
                <voice>1</voice>
                <type>eighth</type>
                <stem>up</stem>
                <staff>1</staff>
                <beam number="1">end</beam>
                <notations>
                    <tied type="start"/>
                </notations>
                <lyric>
                    <text>ia</text>
                </lyric>
            </note>
            <note>
                <pitch>
                    <step>A</step>
                    <octave>3</octave>
                </pitch>
                <duration>2</duration>
                <tie type="stop"/>
                <voice>1</voice>
                <type>quarter</type>
                <stem>up</stem>
                <staff>1</staff>
                <notations>
                    <tied type="stop"/>
                </notations>
            </note>
        </measure>
        <measure number="2" width="272">
            <print new-system="no"/>
            <attributes>
                <divisions>1</divisions>
            </attributes>
            <note>
                <pitch>
                    <step>D</step>
                    <octave>4</octave>
                </pitch>
                <duration>1</duration>
                <voice>1</voice>
                <type>quarter</type>
                <stem>up</stem>
                <staff>1</staff>
                <lyric>
                    <text>Aa-</text>
                </lyric>
            </note>
            <note>
                <pitch>
                    <step>A</step>
                    <octave>4</octave>
                </pitch>
                <duration>1</duration>
                <voice>1</voice>
                <type>quarter</type>
                <stem>up</stem>
                <staff>1</staff>
                <lyric>
                    <text>le-</text>
                </lyric>
            </note>
            <note>
                <pitch>
                    <step>E</step>
                    <octave>4</octave>
                </pitch>
                <duration>2</duration>
                <voice>1</voice>
                <type>half</type>
                <stem>up</stem>
                <staff>1</staff>
                <lyric>
                    <text>lu</text>
                </lyric>
            </note>
        </measure>
        <measure number="3" width="345">
            <print new-system="no"/>
            <attributes>
                <divisions>2</divisions>
            </attributes>
            <note>
                <pitch>
                    <step>F</step>
                    <alter>1</alter>
                    <octave>4</octave>
                </pitch>
                <duration>1</duration>
                <voice>1</voice>
                <type>eighth</type>
                <stem>up</stem>
                <staff>1</staff>
                <beam number="1">begin</beam>
                <lyric>
                    <text>Aa-</text>
                </lyric>
            </note>
            <note>
                <pitch>
                    <step>E</step>
                    <octave>4</octave>
                </pitch>
                <duration>1</duration>
                <voice>1</voice>
                <type>eighth</type>
                <stem>up</stem>
                <staff>1</staff>
                <beam number="1">end</beam>
                <lyric>
                    <text>le-</text>
                </lyric>
            </note>
            <note>
                <rest/>
                <duration>1</duration>
                <voice>1</voice>
                <type>eighth</type>
                <staff>1</staff>
            </note>
            <note>
                <pitch>
                    <step>F</step>
                    <alter>1</alter>
                    <octave>4</octave>
                </pitch>
                <duration>1</duration>
                <voice>1</voice>
                <type>eighth</type>
                <stem>up</stem>
                <staff>1</staff>
                <lyric>
                    <text>ee-</text>
                </lyric>
            </note>
            <note>
                <pitch>
                    <step>E</step>
                    <octave>4</octave>
                </pitch>
                <duration>1</duration>
                <voice>1</voice>
                <type>eighth</type>
                <stem>up</stem>
                <staff>1</staff>
                <beam number="1">begin</beam>
                <lyric>
                    <text>lu-</text>
                </lyric>
            </note>
            <note>
                <pitch>
                    <step>A</step>
                    <octave>3</octave>
                </pitch>
                <duration>1</duration>
                <voice>1</voice>
                <type>eighth</type>
                <stem>up</stem>
                <staff>1</staff>
                <beam number="1">end</beam>
                <lyric>
                    <text>ia</text>
                </lyric>
            </note>
            <note>
                <rest/>
                <duration>1</duration>
                <voice>1</voice>
                <type>eighth</type>
                <staff>1</staff>
            </note>
            <note>
                <pitch>
                    <step>E</step>
                    <octave>4</octave>
                </pitch>
                <duration>1</duration>
                <voice>1</voice>
                <type>eighth</type>
                <stem>up</stem>
                <staff>1</staff>
                <lyric>
                    <text>aa-</text>
                </lyric>
            </note>
        </measure>
        <measure number="4" width="268">
            <print new-system="no"/>
            <note>
                <pitch>
                    <step>F</step>
                    <alter>1</alter>
                    <octave>4</octave>
                </pitch>
                <duration>2</duration>
                <voice>1</voice>
                <type>quarter</type>
                <stem>up</stem>
                <staff>1</staff>
                <lyric>
                    <text>le-</text>
                </lyric>
            </note>
            <note>
                <rest/>
                <duration>1</duration>
                <voice>1</voice>
                <type>eighth</type>
                <staff>1</staff>
            </note>
            <note>
                <pitch>
                    <step>F</step>
                    <alter>1</alter>
                    <octave>4</octave>
                </pitch>
                <duration>1</duration>
                <voice>1</voice>
                <type>eighth</type>
                <stem>up</stem>
                <staff>1</staff>
                <lyric>
                    <text>lu-</text>
                </lyric>
            </note>
            <note>
                <pitch>
                    <step>G</step>
                    <alter>1</alter>
                    <octave>4</octave>
                </pitch>
                <duration>4</duration>
                <voice>1</voice>
                <type>half</type>
                <stem>up</stem>
                <staff>1</staff>
                <lyric>
                    <text>ia</text>
                </lyric>
            </note>
        </measure>
        <measure number="5" width="327">
            <print new-system="no"/>
            <note>
                <pitch>
                    <step>E</step>
                    <octave>4</octave>
                </pitch>
                <duration>1</duration>
                <voice>1</voice>
                <type>eighth</type>
                <stem>up</stem>
                <staff>1</staff>
                <beam number="1">begin</beam>
                <lyric>
                    <text>Aa-</text>
                </lyric>
            </note>
            <note>
                <pitch>
                    <step>D</step>
                    <octave>4</octave>
                </pitch>
                <duration>1</duration>
                <voice>1</voice>
                <type>eighth</type>
                <stem>up</stem>
                <staff>1</staff>
                <beam number="1">continue</beam>
                <lyric>
                    <text>aa-</text>
                </lyric>
            </note>
            <note>
                <pitch>
                    <step>C</step>
                    <alter>1</alter>
                    <octave>4</octave>
                </pitch>
                <duration>1</duration>
                <voice>1</voice>
                <type>eighth</type>
                <stem>up</stem>
                <staff>1</staff>
                <beam number="1">continue</beam>
                <lyric>
                    <text>le-</text>
                </lyric>
            </note>
            <note>
                <pitch>
                    <step>D</step>
                    <octave>4</octave>
                </pitch>
                <duration>1</duration>
                <voice>1</voice>
                <type>eighth</type>
                <stem>up</stem>
                <staff>1</staff>
                <beam number="1">end</beam>
                <lyric>
                    <text>ee-</text>
                </lyric>
            </note>
            <note>
                <pitch>
                    <step>E</step>
                    <octave>4</octave>
                </pitch>
                <duration>1</duration>
                <voice>1</voice>
                <type>eighth</type>
                <stem>up</stem>
                <staff>1</staff>
                <beam number="1">begin</beam>
                <lyric>
                    <text>lu-</text>
                </lyric>
            </note>
            <note>
                <pitch>
                    <step>A</step>
                    <octave>3</octave>
                </pitch>
                <duration>1</duration>
                <tie type="start"/>
                <voice>1</voice>
                <type>eighth</type>
                <stem>up</stem>
                <staff>1</staff>
                <beam number="1">end</beam>
                <notations>
                    <tied type="start"/>
                </notations>
                <lyric>
                    <text>ia</text>
                </lyric>
            </note>
            <note>
                <pitch>
                    <step>A</step>
                    <octave>3</octave>
                </pitch>
                <duration>2</duration>
                <tie type="stop"/>
                <voice>1</voice>
                <type>quarter</type>
                <stem>up</stem>
                <staff>1</staff>
                <notations>
                    <tied type="stop"/>
                </notations>
            </note>
        </measure>
        <measure number="6" width="631">
            <print new-page="yes"/>
            <note>
                <pitch>
                    <step>D</step>
                    <octave>4</octave>
                </pitch>
                <duration>2</duration>
                <voice>1</voice>
                <type>quarter</type>
                <stem>up</stem>
                <staff>1</staff>
                <lyric>
                    <text>Aa-</text>
                </lyric>
            </note>
            <note>
                <pitch>
                    <step>F</step>
                    <alter>1</alter>
                    <octave>4</octave>
                </pitch>
                <duration>1</duration>
                <voice>1</voice>
                <type>eighth</type>
                <stem>up</stem>
                <staff>1</staff>
                <beam number="1">begin</beam>
                <lyric>
                    <text>le-</text>
                </lyric>
            </note>
            <note>
                <pitch>
                    <step>A</step>
                    <octave>4</octave>
                </pitch>
                <duration>1</duration>
                <voice>1</voice>
                <type>eighth</type>
                <stem>up</stem>
                <staff>1</staff>
                <beam number="1">end</beam>
                <lyric>
                    <text>lu-</text>
                </lyric>
            </note>
            <note>
                <pitch>
                    <step>G</step>
                    <alter>1</alter>
                    <octave>4</octave>
                </pitch>
                <duration>4</duration>
                <voice>1</voice>
                <type>half</type>
                <stem>up</stem>
                <staff>1</staff>
                <lyric>
                    <text>ia</text>
                </lyric>
            </note>
        </measure>
        <measure number="7" width="578">
            <print new-system="no"/>
            <note>
                <pitch>
                    <step>F</step>
                    <alter>1</alter>
                    <octave>4</octave>
                </pitch>
                <duration>2</duration>
                <voice>1</voice>
                <type>quarter</type>
                <stem>up</stem>
                <staff>1</staff>
                <lyric>
                    <text>Aa-</text>
                </lyric>
            </note>
            <note>
                <rest/>
                <duration>1</duration>
                <voice>1</voice>
                <type>eighth</type>
                <staff>1</staff>
            </note>
            <note>
                <pitch>
                    <step>F</step>
                    <alter>1</alter>
                    <octave>4</octave>
                </pitch>
                <duration>1</duration>
                <voice>1</voice>
                <type>eighth</type>
                <stem>up</stem>
                <staff>1</staff>
                <lyric>
                    <text>le-</text>
                </lyric>
            </note>
            <note>
                <pitch>
                    <step>E</step>
                    <octave>4</octave>
                </pitch>
                <duration>2</duration>
                <voice>1</voice>
                <type>quarter</type>
                <stem>up</stem>
                <staff>1</staff>
                <lyric>
                    <text>lu-</text>
                </lyric>
            </note>
            <note>
                <rest/>
                <duration>1</duration>
                <voice>1</voice>
                <type>eighth</type>
                <staff>1</staff>
            </note>
            <note>
                <pitch>
                    <step>E</step>
                    <octave>4</octave>
                </pitch>
                <duration>1</duration>
                <voice>1</voice>
                <type>eighth</type>
                <stem>up</stem>
                <staff>1</staff>
                <lyric>
                    <text>ia</text>
                </lyric>
            </note>
        </measure>
        <measure number="8" width="469">
            <print new-system="no"/>
            <note>
                <pitch>
                    <step>F</step>
                    <alter>1</alter>
                    <octave>4</octave>
                </pitch>
                <duration>2</duration>
                <voice>1</voice>
                <type>quarter</type>
                <stem>up</stem>
                <staff>1</staff>
                <lyric>
                    <text>Aa-</text>
                </lyric>
            </note>
            <note>
                <pitch>
                    <step>F</step>
                    <alter>1</alter>
                    <octave>4</octave>
                </pitch>
                <duration>1</duration>
                <voice>1</voice>
                <type>eighth</type>
                <stem>up</stem>
                <staff>1</staff>
                <beam number="1">begin</beam>
                <lyric>
                    <text>le-</text>
                </lyric>
            </note>
            <note>
                <pitch>
                    <step>G</step>
                    <alter>1</alter>
                    <octave>4</octave>
                </pitch>
                <duration>1</duration>
                <voice>1</voice>
                <type>eighth</type>
                <stem>up</stem>
                <staff>1</staff>
                <beam number="1">end</beam>
                <lyric>
                    <text>lu-</text>
                </lyric>
            </note>
            <note>
                <pitch>
                    <step>A</step>
                    <octave>4</octave>
                </pitch>
                <duration>2</duration>
                <voice>1</voice>
                <type>quarter</type>
                <stem>up</stem>
                <staff>1</staff>
                <lyric>
                    <text>ia</text>
                </lyric>
            </note>
            <note>
                <rest/>
                <duration>2</duration>
                <voice>1</voice>
                <type>quarter</type>
                <staff>1</staff>
            </note>
        </measure>
    </part>
    <part id="P3">
        <measure number="1" width="466">
            <print new-page="yes"/>
            <attributes>
                <divisions>1</divisions>
                <key>
                    <fifths>3</fifths>
                    <mode>major</mode>
                </key>
                <time>
                    <beats>4</beats>
                    <beat-type>4</beat-type>
                </time>
                <clef>
                    <sign>G</sign>
                    <line>2</line>
                </clef>
            </attributes>
            <note>
                <pitch>
                    <step>A</step>
                    <octave>4</octave>
                </pitch>
                <duration>2</duration>
                <voice>1</voice>
                <type>half</type>
                <stem>up</stem>
                <staff>1</staff>
                <lyric>
                    <text>Aa-</text>
                </lyric>
            </note>
            <note>
                <pitch>
                    <step>G</step>
                    <alter>1</alter>
                    <octave>4</octave>
                </pitch>
                <duration>2</duration>
                <voice>1</voice>
                <type>half</type>
                <stem>up</stem>
                <staff>1</staff>
                <lyric>
                    <text>lee-</text>
                </lyric>
            </note>
        </measure>
        <measure number="2" width="272">
            <print new-system="no"/>
            <note>
                <pitch>
                    <step>F</step>
                    <alter>1</alter>
                    <octave>4</octave>
                </pitch>
                <duration>2</duration>
                <voice>1</voice>
                <type>half</type>
                <stem>up</stem>
                <staff>1</staff>
                <lyric>
                    <text>luu-</text>
                </lyric>
            </note>
            <note>
                <pitch>
                    <step>A</step>
                    <octave>4</octave>
                </pitch>
                <duration>2</duration>
                <voice>1</voice>
                <type>half</type>
                <stem>up</stem>
                <staff>1</staff>
                <lyric>
                    <text>ia</text>
                </lyric>
            </note>
        </measure>
        <measure number="3" width="345">
            <print new-system="no"/>
            <note>
                <pitch>
                    <step>F</step>
                    <alter>1</alter>
                    <octave>4</octave>
                </pitch>
                <duration>1</duration>
                <voice>1</voice>
                <type>quarter</type>
                <stem>up</stem>
                <staff>1</staff>
                <lyric>
                    <text>Aa-</text>
                </lyric>
            </note>
            <note>
                <pitch>
                    <step>D</step>
                    <octave>4</octave>
                </pitch>
                <duration>1</duration>
                <voice>1</voice>
                <type>quarter</type>
                <stem>up</stem>
                <staff>1</staff>
                <lyric>
                    <text>le-</text>
                </lyric>
            </note>
            <note>
                <pitch>
                    <step>E</step>
                    <octave>4</octave>
                </pitch>
                <duration>1</duration>
                <voice>1</voice>
                <type>quarter</type>
                <stem>up</stem>
                <staff>1</staff>
                <lyric>
                    <text>lu-</text>
                </lyric>
            </note>
            <note>
                <pitch>
                    <step>E</step>
                    <octave>4</octave>
                </pitch>
                <duration>1</duration>
                <voice>1</voice>
                <type>quarter</type>
                <stem>up</stem>
                <staff>1</staff>
                <lyric>
                    <text>ia</text>
                </lyric>
            </note>
        </measure>
        <measure number="4" width="268">
            <print new-system="no"/>
            <attributes>
                <divisions>2</divisions>
            </attributes>
            <note>
                <pitch>
                    <step>D</step>
                    <octave>4</octave>
                </pitch>
                <duration>2</duration>
                <voice>1</voice>
                <type>quarter</type>
                <stem>up</stem>
                <staff>1</staff>
                <lyric>
                    <text>aa-</text>
                </lyric>
            </note>
            <note>
                <pitch>
                    <step>E</step>
                    <octave>4</octave>
                </pitch>
                <duration>1</duration>
                <voice>1</voice>
                <type>eighth</type>
                <stem>up</stem>
                <staff>1</staff>
                <beam number="1">begin</beam>
                <lyric>
                    <text>le-</text>
                </lyric>
            </note>
            <note>
                <pitch>
                    <step>F</step>
                    <alter>1</alter>
                    <octave>4</octave>
                </pitch>
                <duration>1</duration>
                <voice>1</voice>
                <type>eighth</type>
                <stem>up</stem>
                <staff>1</staff>
                <beam number="1">end</beam>
                <lyric>
                    <text>lu</text>
                </lyric>
            </note>
            <note>
                <pitch>
                    <step>E</step>
                    <octave>4</octave>
                </pitch>
                <duration>2</duration>
                <voice>1</voice>
                <type>quarter</type>
                <stem>up</stem>
                <staff>1</staff>
                <lyric>
                    <text>ia</text>
                </lyric>
            </note>
            <note>
                <pitch>
                    <step>F</step>
                    <alter>1</alter>
                    <octave>4</octave>
                </pitch>
                <duration>1</duration>
                <voice>1</voice>
                <type>eighth</type>
                <stem>up</stem>
                <staff>1</staff>
                <beam number="1">begin</beam>
                <lyric>
                    <text>aa</text>
                </lyric>
            </note>
            <note>
                <pitch>
                    <step>G</step>
                    <alter>1</alter>
                    <octave>4</octave>
                </pitch>
                <duration>1</duration>
                <voice>1</voice>
                <type>eighth</type>
                <stem>up</stem>
                <staff>1</staff>
                <beam number="1">end</beam>
                <lyric>
                    <text>aa</text>
                </lyric>
            </note>
        </measure>
        <measure number="5" width="327">
            <print new-system="no"/>
            <attributes>
                <divisions>1</divisions>
            </attributes>
            <note>
                <pitch>
                    <step>A</step>
                    <octave>4</octave>
                </pitch>
                <duration>2</duration>
                <voice>1</voice>
                <type>half</type>
                <stem>up</stem>
                <staff>1</staff>
                <lyric>
                    <text>Aa-</text>
                </lyric>
            </note>
            <note>
                <pitch>
                    <step>G</step>
                    <alter>1</alter>
                    <octave>4</octave>
                </pitch>
                <duration>2</duration>
                <voice>1</voice>
                <type>half</type>
                <stem>up</stem>
                <staff>1</staff>
                <lyric>
                    <text>le-</text>
                </lyric>
            </note>
        </measure>
        <measure number="6" width="631">
            <print new-page="yes"/>
            <attributes>
                <divisions>2</divisions>
            </attributes>
            <note>
                <pitch>
                    <step>F</step>
                    <alter>1</alter>
                    <octave>4</octave>
                </pitch>
                <duration>4</duration>
                <voice>1</voice>
                <type>half</type>
                <stem>up</stem>
                <staff>1</staff>
                <lyric>
                    <text>lu-</text>
                </lyric>
            </note>
            <note>
                <pitch>
                    <step>F</step>
                    <octave>4</octave>
                </pitch>
                <duration>3</duration>
                <voice>1</voice>
                <type>quarter</type>
                <dot/>
                <accidental>natural</accidental>
                <stem>up</stem>
                <staff>1</staff>
                <lyric>
                    <text>ia</text>
                </lyric>
            </note>
            <note>
                <pitch>
                    <step>E</step>
                    <octave>4</octave>
                </pitch>
                <duration>1</duration>
                <voice>1</voice>
                <type>eighth</type>
                <stem>up</stem>
                <staff>1</staff>
                <lyric>
                    <text>Aa-</text>
                </lyric>
            </note>
        </measure>
        <measure number="7" width="578">
            <print new-system="no"/>
            <attributes>
                <divisions>1</divisions>
            </attributes>
            <note>
                <pitch>
                    <step>A</step>
                    <octave>4</octave>
                </pitch>
                <duration>1</duration>
                <voice>1</voice>
                <type>quarter</type>
                <stem>up</stem>
                <staff>1</staff>
                <lyric>
                    <text>le-</text>
                </lyric>
            </note>
            <note>
                <pitch>
                    <step>F</step>
                    <alter>1</alter>
                    <octave>4</octave>
                </pitch>
                <duration>1</duration>
                <voice>1</voice>
                <type>quarter</type>
                <stem>up</stem>
                <staff>1</staff>
                <lyric>
                    <text>lu</text>
                </lyric>
            </note>
            <note>
                <pitch>
                    <step>E</step>
                    <octave>4</octave>
                </pitch>
                <duration>1</duration>
                <voice>1</voice>
                <type>quarter</type>
                <stem>up</stem>
                <staff>1</staff>
                <lyric>
                    <text>ia</text>
                </lyric>
            </note>
            <note>
                <pitch>
                    <step>F</step>
                    <alter>1</alter>
                    <octave>4</octave>
                </pitch>
                <duration>1</duration>
                <voice>1</voice>
                <type>quarter</type>
                <stem>up</stem>
                <staff>1</staff>
                <lyric>
                    <text>aa</text>
                </lyric>
            </note>
        </measure>
        <measure number="8" width="469">
            <print new-system="no"/>
            <attributes>
                <divisions>2</divisions>
            </attributes>
            <note>
                <pitch>
                    <step>D</step>
                    <octave>4</octave>
                </pitch>
                <duration>2</duration>
                <voice>1</voice>
                <type>quarter</type>
                <stem>up</stem>
                <staff>1</staff>
                <lyric>
                    <text>aa</text>
                </lyric>
            </note>
            <note>
                <pitch>
                    <step>E</step>
                    <octave>4</octave>
                </pitch>
                <duration>1</duration>
                <voice>1</voice>
                <type>eighth</type>
                <stem>up</stem>
                <staff>1</staff>
                <beam number="1">begin</beam>
                <lyric>
                    <text>le-</text>
                </lyric>
            </note>
            <note>
                <pitch>
                    <step>B</step>
                    <octave>4</octave>
                </pitch>
                <duration>1</duration>
                <voice>1</voice>
                <type>eighth</type>
                <stem>up</stem>
                <staff>1</staff>
                <beam number="1">end</beam>
                <lyric>
                    <text>lu-</text>
                </lyric>
            </note>
            <note>
                <pitch>
                    <step>A</step>
                    <octave>4</octave>
                </pitch>
                <duration>2</duration>
                <voice>1</voice>
                <type>quarter</type>
                <stem>up</stem>
                <staff>1</staff>
                <lyric>
                    <text>ia</text>
                </lyric>
            </note>
            <note>
                <rest/>
                <duration>2</duration>
                <voice>1</voice>
                <type>quarter</type>
                <staff>1</staff>
            </note>
        </measure>
    </part>
</score-partwise>